<svg width="10" height="25" viewBox="5 0 8 15" fill="#000000" xmlns="http://www.w3.org/2000/svg">
<path d="M6.90217 7.91518C6.90217 8.72768 7.56083 9.38634 8.37333 9.38634C9.18582 9.38634 9.84448 8.72768 9.84448 7.91518C9.84448 7.10269 9.18582 6.44403 8.37333 6.44403C7.56083 6.44403 6.90217 7.10269 6.90217 7.91518Z" fill="#C2C2C2"/>
<path d="M6.90217 12.8191C6.90217 13.6316 7.56083 14.2903 8.37333 14.2903C9.18582 14.2903 9.84448 13.6316 9.84448 12.8191C9.84448 12.0066 9.18582 11.348 8.37333 11.348C7.56083 11.348 6.90217 12.0066 6.90217 12.8191Z" fill="#C2C2C2"/>
<path d="M6.90217 3.01144C6.90217 3.82393 7.56083 4.48259 8.37333 4.48259C9.18582 4.48259 9.84448 3.82393 9.84448 3.01144C9.84448 2.19894 9.18582 1.54028 8.37333 1.54028C7.56083 1.54028 6.90217 2.19894 6.90217 3.01144Z" fill="#C2C2C2"/>
</svg>
